<?xml version="1.0" standalone="no"?>
<!DOCTYPE svg PUBLIC "-//W3C//DTD SVG 20010904//EN"
 "http://www.w3.org/TR/2001/REC-SVG-20010904/DTD/svg10.dtd">
<svg version="1.0" xmlns="http://www.w3.org/2000/svg"
 width="700.000000pt" height="700.000000pt" viewBox="0 0 700.000000 700.000000"
 preserveAspectRatio="xMidYMid meet">
<metadata>
Created by potrace 1.11, written by Peter Selinger 2001-2013
</metadata>
<g transform="translate(0.000000,700.000000) scale(0.100000,-0.100000)"
fill="#000000" stroke="none">
<path d="M3270 6320 c-362 -33 -706 -130 -1029 -291 -315 -157 -563 -342 -811
-604 -407 -431 -665 -989 -741 -1605 -15 -118 -18 -480 -6 -582 l9 -68 307 0
308 0 31 148 c17 81 52 253 79 383 l48 236 -32 27 c-105 88 -165 260 -143 404
39 246 277 424 516 384 266 -44 444 -305 379 -555 -20 -76 -54 -142 -102 -196
l-39 -44 43 -226 c23 -124 56 -301 74 -394 l31 -167 701 2 701 3 57 278 57
278 -22 11 c-49 26 -152 118 -207 185 -129 161 -187 312 -196 514 -8 185 21
318 103 467 239 435 792 587 1212 334 147 -88 266 -220 342 -375 72 -151 84
-204 84 -382 0 -135 -3 -159 -28 -240 -47 -154 -133 -292 -249 -403 l-56 -52
50 -258 c27 -141 54 -281 60 -309 l10 -53 178 0 177 0 46 223 46 222 -23 25
c-80 84 -71 233 19 307 88 72 197 69 282 -9 79 -73 92 -180 33 -273 -16 -25
-29 -52 -29 -59 0 -13 45 -255 71 -383 l10 -53 344 0 343 0 9 68 c14 115 8
485 -11 622 -113 835 -563 1555 -1258 2010 -350 230 -749 377 -1181 436 -135
18 -465 26 -597 14z"/>
<path d="M716 2983 c19 -110 89 -355 135 -477 213 -563 589 -1033 1091 -1366
303 -202 773 -384 1094 -426 l51 -6 11 53 c6 30 110 533 231 1119 121 586 223
1082 226 1103 l7 37 -671 0 c-369 0 -671 -3 -671 -6 0 -7 87 -475 94 -506 3
-13 -15 -23 -83 -47 -221 -77 -390 -100 -590 -81 -180 17 -471 89 -471 116 0
7 23 119 50 249 28 130 50 245 50 256 0 18 -10 19 -280 19 l-281 0 7 -37z"/>
<path d="M4840 3012 c0 -9 338 -1782 343 -1795 5 -16 189 143 332 287 323 325
549 702 689 1146 36 114 86 319 86 353 0 16 -22 17 -320 17 l-321 0 7 -48 6
-47 -85 -23 c-130 -34 -315 -27 -430 17 -25 10 -26 13 -20 56 l6 45 -147 0
c-80 0 -146 -4 -146 -8z"/>
</g>
</svg>
